<svg id="visual" viewBox="0 0 1300 640" width="1300" height="640" xmlns="http://www.w3.org/2000/svg" xmlns:xlink="http://www.w3.org/1999/xlink" version="1.1"><rect x="0" y="0" width="1300" height="640" fill="#001220"></rect><defs><linearGradient id="grad1_0" x1="50.8%" y1="0%" x2="100%" y2="100%"><stop offset="9.375%" stop-color="#ff0066" stop-opacity="1"></stop><stop offset="90.625%" stop-color="#ff0066" stop-opacity="1"></stop></linearGradient></defs><defs><linearGradient id="grad1_1" x1="50.8%" y1="0%" x2="100%" y2="100%"><stop offset="9.375%" stop-color="#ff0066" stop-opacity="1"></stop><stop offset="90.625%" stop-color="#001220" stop-opacity="1"></stop></linearGradient></defs><defs><linearGradient id="grad2_0" x1="0%" y1="0%" x2="49.2%" y2="100%"><stop offset="9.375%" stop-color="#ff0066" stop-opacity="1"></stop><stop offset="90.625%" stop-color="#ff0066" stop-opacity="1"></stop></linearGradient></defs><defs><linearGradient id="grad2_1" x1="0%" y1="0%" x2="49.2%" y2="100%"><stop offset="9.375%" stop-color="#001220" stop-opacity="1"></stop><stop offset="90.625%" stop-color="#ff0066" stop-opacity="1"></stop></linearGradient></defs><g transform="translate(1300, 0)"><path d="M0 512C-47.9 459 -95.7 406.1 -161.1 389C-226.5 371.8 -309.3 390.6 -362 362C-414.8 333.5 -437.3 257.7 -457.3 189.4C-477.3 121.2 -494.6 60.6 -512 0L0 0Z" fill="#623078"></path><path d="M0 256C-23.9 229.5 -47.9 203 -80.6 194.5C-113.2 185.9 -154.7 195.3 -181 181C-207.4 166.7 -218.7 128.8 -228.7 94.7C-238.6 60.6 -247.3 30.3 -256 0L0 0Z" fill="#ff0066"></path></g><g transform="translate(0, 640)"><path d="M0 -512C75.9 -513.9 151.9 -515.8 195.9 -473C240 -430.3 252.2 -342.9 291.3 -291.3C330.5 -239.8 396.6 -224 437.9 -181.4C479.2 -138.8 495.6 -69.4 512 0L0 0Z" fill="#623078"></path><path d="M0 -256C38 -256.9 75.9 -257.9 98 -236.5C120 -215.1 126.1 -171.5 145.7 -145.7C165.2 -119.9 198.3 -112 219 -90.7C239.6 -69.4 247.8 -34.7 256 0L0 0Z" fill="#ff0066"></path></g></svg>