<svg id="visual" viewBox="0 0 1300 640" width="1300" height="640" xmlns="http://www.w3.org/2000/svg" xmlns:xlink="http://www.w3.org/1999/xlink" version="1.1"><rect x="0" y="0" width="1300" height="640" fill="#001220"></rect><defs><linearGradient id="grad1_0" x1="50.8%" y1="0%" x2="100%" y2="100%"><stop offset="9.375%" stop-color="#001220" stop-opacity="1"></stop><stop offset="90.625%" stop-color="#001220" stop-opacity="1"></stop></linearGradient></defs><defs><linearGradient id="grad2_0" x1="0%" y1="0%" x2="49.2%" y2="100%"><stop offset="9.375%" stop-color="#001220" stop-opacity="1"></stop><stop offset="90.625%" stop-color="#001220" stop-opacity="1"></stop></linearGradient></defs><g transform="translate(1300, 0)"><path d="M0 512C-55.4 469.7 -110.9 427.5 -165.7 400C-220.5 372.6 -274.7 359.9 -330.2 330.2C-385.7 300.5 -442.5 253.8 -473 195.9C-503.5 138.1 -507.8 69 -512 0L0 0Z" fill="#FCAF3C"></path></g><g transform="translate(0, 640)"><path d="M0 -512C72.3 -508.1 144.7 -504.2 194 -468.4C243.4 -432.6 269.8 -365 318.2 -318.2C366.6 -271.4 437.1 -245.5 473 -195.9C509 -146.4 510.5 -73.2 512 0L0 0Z" fill="#FCAF3C"></path></g></svg>