<svg id="visual" viewBox="0 0 1300 640" width="1300" height="640" xmlns="http://www.w3.org/2000/svg" xmlns:xlink="http://www.w3.org/1999/xlink" version="1.1"><rect x="0" y="0" width="1300" height="640" fill="#001220"></rect><defs><linearGradient id="grad1_0" x1="50.8%" y1="0%" x2="100%" y2="100%"><stop offset="9.375%" stop-color="#fbae3c" stop-opacity="1"></stop><stop offset="90.625%" stop-color="#fbae3c" stop-opacity="1"></stop></linearGradient></defs><defs><linearGradient id="grad1_1" x1="50.8%" y1="0%" x2="100%" y2="100%"><stop offset="9.375%" stop-color="#fbae3c" stop-opacity="1"></stop><stop offset="90.625%" stop-color="#96446e" stop-opacity="1"></stop></linearGradient></defs><defs><linearGradient id="grad1_2" x1="50.8%" y1="0%" x2="100%" y2="100%"><stop offset="9.375%" stop-color="#001220" stop-opacity="1"></stop><stop offset="90.625%" stop-color="#96446e" stop-opacity="1"></stop></linearGradient></defs><defs><linearGradient id="grad2_0" x1="0%" y1="0%" x2="49.2%" y2="100%"><stop offset="9.375%" stop-color="#fbae3c" stop-opacity="1"></stop><stop offset="90.625%" stop-color="#fbae3c" stop-opacity="1"></stop></linearGradient></defs><defs><linearGradient id="grad2_1" x1="0%" y1="0%" x2="49.2%" y2="100%"><stop offset="9.375%" stop-color="#96446e" stop-opacity="1"></stop><stop offset="90.625%" stop-color="#fbae3c" stop-opacity="1"></stop></linearGradient></defs><defs><linearGradient id="grad2_2" x1="0%" y1="0%" x2="49.2%" y2="100%"><stop offset="9.375%" stop-color="#96446e" stop-opacity="1"></stop><stop offset="90.625%" stop-color="#001220" stop-opacity="1"></stop></linearGradient></defs><g transform="translate(1300, 0)"><path d="M0 576C-76.2 569.2 -152.4 562.5 -220.4 532.2C-288.5 501.8 -348.4 448 -388.2 388.2C-428 328.4 -447.8 262.8 -475.8 197.1C-503.8 131.4 -539.9 65.7 -576 0L0 0Z" fill="#3d3056"></path><path d="M0 384C-50.8 379.5 -101.6 375 -147 354.8C-192.3 334.6 -232.2 298.6 -258.8 258.8C-285.4 219 -298.6 175.2 -317.2 131.4C-335.8 87.6 -359.9 43.8 -384 0L0 0Z" fill="#e1685e"></path><path d="M0 192C-25.4 189.7 -50.8 187.5 -73.5 177.4C-96.2 167.3 -116.1 149.3 -129.4 129.4C-142.7 109.5 -149.3 87.6 -158.6 65.7C-167.9 43.8 -180 21.9 -192 0L0 0Z" fill="#fbae3c"></path></g><g transform="translate(0, 640)"><path d="M0 -576C61.6 -528.5 123.2 -481 187.5 -452.7C251.9 -424.4 319 -415.2 381.1 -381.1C443.3 -347.1 500.5 -288.1 532.2 -220.4C563.8 -152.8 569.9 -76.4 576 0L0 0Z" fill="#3d3056"></path><path d="M0 -384C41.1 -352.3 82.1 -320.7 125 -301.8C167.9 -282.9 212.6 -276.8 254.1 -254.1C295.5 -231.4 333.7 -192.1 354.8 -147C375.9 -101.8 379.9 -50.9 384 0L0 0Z" fill="#e1685e"></path><path d="M0 -192C20.5 -176.2 41.1 -160.3 62.5 -150.9C84 -141.5 106.3 -138.4 127 -127C147.8 -115.7 166.8 -96 177.4 -73.5C187.9 -50.9 190 -25.5 192 0L0 0Z" fill="#fbae3c"></path></g></svg>