<svg id="visual" viewBox="0 0 1300 640" width="1300" height="640" xmlns="http://www.w3.org/2000/svg" xmlns:xlink="http://www.w3.org/1999/xlink" version="1.1"><rect x="0" y="0" width="1300" height="640" fill="#001122"></rect><defs><linearGradient id="grad1_0" x1="50.8%" y1="0%" x2="100%" y2="100%"><stop offset="9.375%" stop-color="#4facf7" stop-opacity="1"></stop><stop offset="90.625%" stop-color="#4facf7" stop-opacity="1"></stop></linearGradient></defs><defs><linearGradient id="grad1_1" x1="50.8%" y1="0%" x2="100%" y2="100%"><stop offset="9.375%" stop-color="#4facf7" stop-opacity="1"></stop><stop offset="90.625%" stop-color="#3b81bc" stop-opacity="1"></stop></linearGradient></defs><defs><linearGradient id="grad1_2" x1="50.8%" y1="0%" x2="100%" y2="100%"><stop offset="9.375%" stop-color="#275984" stop-opacity="1"></stop><stop offset="90.625%" stop-color="#3b81bc" stop-opacity="1"></stop></linearGradient></defs><defs><linearGradient id="grad1_3" x1="50.8%" y1="0%" x2="100%" y2="100%"><stop offset="9.375%" stop-color="#275984" stop-opacity="1"></stop><stop offset="90.625%" stop-color="#133350" stop-opacity="1"></stop></linearGradient></defs><defs><linearGradient id="grad1_4" x1="50.8%" y1="0%" x2="100%" y2="100%"><stop offset="9.375%" stop-color="#001122" stop-opacity="1"></stop><stop offset="90.625%" stop-color="#133350" stop-opacity="1"></stop></linearGradient></defs><defs><linearGradient id="grad2_0" x1="0%" y1="0%" x2="49.2%" y2="100%"><stop offset="9.375%" stop-color="#4facf7" stop-opacity="1"></stop><stop offset="90.625%" stop-color="#4facf7" stop-opacity="1"></stop></linearGradient></defs><defs><linearGradient id="grad2_1" x1="0%" y1="0%" x2="49.2%" y2="100%"><stop offset="9.375%" stop-color="#3b81bc" stop-opacity="1"></stop><stop offset="90.625%" stop-color="#4facf7" stop-opacity="1"></stop></linearGradient></defs><defs><linearGradient id="grad2_2" x1="0%" y1="0%" x2="49.2%" y2="100%"><stop offset="9.375%" stop-color="#3b81bc" stop-opacity="1"></stop><stop offset="90.625%" stop-color="#275984" stop-opacity="1"></stop></linearGradient></defs><defs><linearGradient id="grad2_3" x1="0%" y1="0%" x2="49.2%" y2="100%"><stop offset="9.375%" stop-color="#133350" stop-opacity="1"></stop><stop offset="90.625%" stop-color="#275984" stop-opacity="1"></stop></linearGradient></defs><defs><linearGradient id="grad2_4" x1="0%" y1="0%" x2="49.2%" y2="100%"><stop offset="9.375%" stop-color="#133350" stop-opacity="1"></stop><stop offset="90.625%" stop-color="#001122" stop-opacity="1"></stop></linearGradient></defs><g transform="translate(1300, 0)"><path d="M0 512C-45.7 511.9 -91.3 511.9 -132.5 494.6C-173.7 477.2 -210.4 442.7 -233 403.6C-255.6 364.5 -264.1 320.8 -296.3 296.3C-328.4 271.8 -384.2 266.4 -417.4 241C-450.6 215.6 -461.3 170.3 -473.3 126.8C-485.3 83.3 -498.7 41.7 -512 0L0 0Z" fill="#092238"></path><path d="M0 409.6C-36.5 409.5 -73.1 409.5 -106 395.6C-139 381.8 -168.3 354.1 -186.4 322.9C-204.5 291.6 -211.3 256.6 -237 237C-262.7 217.4 -307.4 213.1 -333.9 192.8C-360.5 172.5 -369 136.3 -378.6 101.5C-388.2 66.7 -398.9 33.3 -409.6 0L0 0Z" fill="#1d456a"></path><path d="M0 307.2C-27.4 307.2 -54.8 307.1 -79.5 296.7C-104.2 286.3 -126.2 265.6 -139.8 242.1C-153.4 218.7 -158.5 192.5 -177.8 177.8C-197.1 163.1 -230.5 159.8 -250.5 144.6C-270.4 129.4 -276.8 102.2 -284 76.1C-291.2 50 -299.2 25 -307.2 0L0 0Z" fill="#316ca0"></path><path d="M0 204.8C-18.3 204.8 -36.5 204.7 -53 197.8C-69.5 190.9 -84.2 177.1 -93.2 161.4C-102.2 145.8 -105.7 128.3 -118.5 118.5C-131.4 108.7 -153.7 106.5 -167 96.4C-180.3 86.3 -184.5 68.1 -189.3 50.7C-194.1 33.3 -199.5 16.7 -204.8 0L0 0Z" fill="#4596d9"></path><path d="M0 102.4C-9.1 102.4 -18.3 102.4 -26.5 98.9C-34.7 95.4 -42.1 88.5 -46.6 80.7C-51.1 72.9 -52.8 64.2 -59.3 59.3C-65.7 54.4 -76.8 53.3 -83.5 48.2C-90.1 43.1 -92.3 34.1 -94.7 25.4C-97.1 16.7 -99.7 8.3 -102.4 0L0 0Z" fill="#4facf7"></path></g><g transform="translate(0, 640)"><path d="M0 -512C43.7 -498.5 87.4 -485 123.2 -459.8C159 -434.6 186.8 -397.6 211.5 -366.3C236.2 -335 257.8 -309.3 289.9 -289.9C322.1 -270.5 364.8 -257.3 403.6 -233C442.3 -208.7 477.1 -173.2 494.6 -132.5C512 -91.8 512 -45.9 512 0L0 0Z" fill="#092238"></path><path d="M0 -409.6C35 -398.8 69.9 -388 98.6 -367.8C127.2 -347.7 149.4 -318.1 169.2 -293.1C189 -268 206.2 -247.5 231.9 -231.9C257.7 -216.4 291.8 -205.9 322.9 -186.4C353.9 -166.9 381.7 -138.6 395.6 -106C409.6 -73.5 409.6 -36.7 409.6 0L0 0Z" fill="#1d456a"></path><path d="M0 -307.2C26.2 -299.1 52.5 -291 73.9 -275.9C95.4 -260.7 112.1 -238.6 126.9 -219.8C141.7 -201 154.7 -185.6 173.9 -173.9C193.2 -162.3 218.9 -154.4 242.1 -139.8C265.4 -125.2 286.3 -103.9 296.7 -79.5C307.2 -55.1 307.2 -27.5 307.2 0L0 0Z" fill="#316ca0"></path><path d="M0 -204.8C17.5 -199.4 35 -194 49.3 -183.9C63.6 -173.8 74.7 -159.1 84.6 -146.5C94.5 -134 103.1 -123.7 116 -116C128.8 -108.2 145.9 -102.9 161.4 -93.2C176.9 -83.5 190.9 -69.3 197.8 -53C204.8 -36.7 204.8 -18.4 204.8 0L0 0Z" fill="#4596d9"></path><path d="M0 -102.4C8.7 -99.7 17.5 -97 24.6 -92C31.8 -86.9 37.4 -79.5 42.3 -73.3C47.2 -67 51.6 -61.9 58 -58C64.4 -54.1 73 -51.5 80.7 -46.6C88.5 -41.7 95.4 -34.6 98.9 -26.5C102.4 -18.4 102.4 -9.2 102.4 0L0 0Z" fill="#4facf7"></path></g></svg>